<?xml version="1.0" standalone="no"?><!DOCTYPE svg PUBLIC "-//W3C//DTD SVG 1.1//EN" "http://www.w3.org/Graphics/SVG/1.1/DTD/svg11.dtd"><svg class="icon" width="32px" height="32.00px" viewBox="0 0 1024 1024" version="1.1" xmlns="http://www.w3.org/2000/svg"><path fill="#ffffff" d="M640.96 470.656C698.304 430.144 736 363.648 736 288 736 164.288 635.712 64 512 64S288 164.288 288 288c0 75.584 37.696 142.08 95.04 182.656C234.496 523.776 128 665.28 128 831.936 128 876.864 136.128 919.872 150.336 960l68.8 0C201.92 920.704 192 877.504 192 831.936 192 655.488 335.552 512 512 512s320 143.488 320 319.936c0 45.568-9.856 88.768-27.136 128.064l68.736 0c14.272-40.128 22.4-83.136 22.4-128.064C896 665.344 789.44 523.776 640.96 470.656zM352 288C352 199.808 423.744 128 512 128s160 71.808 160 160C672 376.256 600.256 448 512 448S352 376.256 352 288z" /></svg>