<?xml version="1.0" standalone="no"?><!DOCTYPE svg PUBLIC "-//W3C//DTD SVG 1.1//EN" "http://www.w3.org/Graphics/SVG/1.1/DTD/svg11.dtd"><svg class="icon" width="32px" height="32.00px" viewBox="0 0 1024 1024" version="1.1" xmlns="http://www.w3.org/2000/svg"><path fill="#ffffff" d="M104.448 121.856c27.989333 0 53.418667 16.896 64 42.837333 10.752 25.941333 4.778667 55.808-15.018667 75.605334-19.797333 19.797333-49.664 25.770667-75.605333 15.018666-25.941333-10.752-42.837333-36.010667-42.837333-64 0.170667-38.4 31.232-69.461333 69.461333-69.461333zM104.448 451.242667c27.989333 0 53.418667 16.896 64 42.837333 10.752 25.941333 4.778667 55.808-15.018667 75.605333-19.797333 19.797333-49.664 25.770667-75.605333 15.018667-25.941333-10.752-42.837333-36.010667-42.837333-64 0.170667-38.4 31.232-69.461333 69.461333-69.461333zM104.448 763.392c27.989333 0 53.418667 16.896 64 42.837333 10.752 25.941333 4.778667 55.808-15.018667 75.605334-19.797333 19.797333-49.664 25.770667-75.605333 15.018666-25.941333-10.752-42.837333-36.010667-42.837333-64 0.170667-38.4 31.232-69.461333 69.461333-69.461333zM321.194667 121.856h606.890666c33.450667 0 60.757333 27.136 60.757334 60.757333 0 33.450667-27.136 60.757333-60.757334 60.757334H321.194667c-33.450667 0-60.757333-27.136-60.757334-60.757334 0.170667-33.621333 27.306667-60.757333 60.757334-60.757333zM321.194667 451.242667h606.890666c33.450667 0 60.757333 27.136 60.757334 60.757333 0 33.450667-27.136 60.757333-60.757334 60.757333H321.194667c-33.450667 0-60.757333-27.136-60.757334-60.757333 0.170667-33.450667 27.306667-60.757333 60.757334-60.757333zM321.194667 763.392h606.890666c33.450667 0 60.757333 27.136 60.757334 60.757333 0 33.450667-27.136 60.757333-60.757334 60.757334H321.194667c-33.450667 0-60.757333-27.136-60.757334-60.757334 0.170667-33.621333 27.306667-60.757333 60.757334-60.757333z" /></svg>